<svg width="18" height="18" viewBox="0 0 18 18" fill="none" xmlns="http://www.w3.org/2000/svg">
<path d="M2.4375 7.4375C1.99479 7.4375 1.61719 7.58073 1.30469 7.86719C0.992188 8.17969 0.835938 8.55729 0.835938 9C0.835938 9.44271 0.992188 9.80729 1.30469 10.0937C1.61719 10.4062 1.99479 10.5625 2.4375 10.5625C2.85417 10.5625 3.21875 10.4062 3.53125 10.0937C3.84375 9.80729 4 9.44271 4 9C4 8.55729 3.84375 8.17969 3.53125 7.86719C3.21875 7.58073 2.85417 7.4375 2.4375 7.4375ZM5.95313 7.59375C5.5625 7.59375 5.23698 7.72396 4.97656 7.98437C4.6901 8.27083 4.54688 8.60937 4.54688 9C4.54688 9.39062 4.6901 9.71615 4.97656 9.97656C5.23698 10.263 5.5625 10.4062 5.95313 10.4062C6.34375 10.4062 6.68229 10.263 6.96875 9.97656C7.22917 9.71615 7.35938 9.39062 7.35938 9C7.35938 8.60937 7.22917 8.27083 6.96875 7.98437C6.68229 7.72396 6.34375 7.59375 5.95313 7.59375ZM5.95313 11.1484C5.5625 11.1484 5.23698 11.2786 4.97656 11.5391C4.6901 11.8255 4.54688 12.1641 4.54688 12.5547C4.54688 12.9453 4.6901 13.2708 4.97656 13.5312C5.23698 13.8177 5.5625 13.9609 5.95312 13.9609C6.34375 13.9609 6.68229 13.8177 6.96875 13.5312C7.22917 13.2708 7.35938 12.9453 7.35938 12.5547C7.35938 12.1641 7.22917 11.8255 6.96875 11.5391C6.68229 11.2786 6.34375 11.1484 5.95313 11.1484ZM5.95313 4.03906C5.5625 4.03906 5.23698 4.16927 4.97656 4.42969C4.6901 4.71615 4.54688 5.05469 4.54688 5.44531C4.54688 5.83594 4.6901 6.16146 4.97656 6.42187C5.23698 6.70833 5.5625 6.85156 5.95313 6.85156C6.34375 6.85156 6.68229 6.70833 6.96875 6.42187C7.22917 6.16146 7.35938 5.83594 7.35938 5.44531C7.35938 5.08073 7.22917 4.75521 6.96875 4.46875C6.68229 4.18229 6.34375 4.03906 5.95313 4.03906ZM9.50781 7.78906C9.16927 7.78906 8.88281 7.90625 8.64844 8.14062C8.38802 8.375 8.25781 8.66146 8.25781 9C8.25781 9.33854 8.38802 9.625 8.64844 9.85937C8.88281 10.0937 9.16927 10.2109 9.50781 10.2109C9.84635 10.2109 10.1328 10.0937 10.3672 9.85937C10.6016 9.625 10.7188 9.33854 10.7188 9C10.7188 8.66146 10.6016 8.375 10.3672 8.14062C10.1328 7.90625 9.84635 7.78906 9.50781 7.78906ZM9.50781 11.3438C9.16927 11.3438 8.88281 11.4609 8.64844 11.6953C8.38802 11.9297 8.25781 12.2161 8.25781 12.5547C8.25781 12.8932 8.38802 13.1797 8.64844 13.4141C8.88281 13.6484 9.16927 13.7656 9.50781 13.7656C9.84635 13.7656 10.1328 13.6484 10.3672 13.4141C10.6016 13.1797 10.7188 12.8932 10.7188 12.5547C10.7188 12.2161 10.6016 11.9297 10.3672 11.6953C10.1328 11.4609 9.84635 11.3438 9.50781 11.3438ZM9.50781 4.23437C9.16927 4.23437 8.88281 4.35156 8.64844 4.58594C8.38802 4.82031 8.25781 5.10677 8.25781 5.44531C8.25781 5.78385 8.38802 6.07031 8.64844 6.30469C8.88281 6.53906 9.16927 6.65625 9.50781 6.65625C9.84635 6.65625 10.1328 6.53906 10.3672 6.30469C10.6016 6.07031 10.7188 5.78385 10.7188 5.44531C10.7188 5.10677 10.6016 4.82031 10.3672 4.58594C10.1328 4.35156 9.84635 4.23437 9.50781 4.23437ZM9.50781 0.679688C9.16927 0.679688 8.88281 0.796875 8.64844 1.03125C8.38802 1.26562 8.25781 1.55208 8.25781 1.89062C8.25781 2.22917 8.38802 2.51562 8.64844 2.75C8.88281 2.98438 9.16927 3.10156 9.50781 3.10156C9.84635 3.10156 10.1328 2.98438 10.3672 2.75C10.6016 2.51562 10.7188 2.22917 10.7188 1.89062C10.7188 1.55208 10.6016 1.26562 10.3672 1.03125C10.1328 0.796875 9.84635 0.679688 9.50781 0.679688ZM9.50781 14.8984C9.16927 14.8984 8.88281 15.0156 8.64844 15.25C8.38802 15.4844 8.25781 15.7708 8.25781 16.1094C8.25781 16.4479 8.38802 16.7344 8.64844 16.9688C8.88281 17.2031 9.16927 17.3203 9.50781 17.3203C9.84635 17.3203 10.1328 17.2031 10.3672 16.9688C10.6016 16.7344 10.7188 16.4479 10.7188 16.1094C10.7188 15.7708 10.6016 15.4844 10.3672 15.25C10.1328 15.0156 9.84635 14.8984 9.50781 14.8984ZM13.0234 7.94531C12.737 7.94531 12.4896 8.04948 12.2812 8.25781C12.0729 8.46615 11.9688 8.71354 11.9688 9C11.9688 9.28646 12.0729 9.53385 12.2812 9.74219C12.4896 9.95052 12.737 10.0547 13.0234 10.0547C13.3099 10.0547 13.5573 9.95052 13.7656 9.74219C13.974 9.53385 14.0781 9.28646 14.0781 9C14.0781 8.71354 13.974 8.46615 13.7656 8.25781C13.5573 8.04948 13.3099 7.94531 13.0234 7.94531ZM13.0234 4.39062C12.737 4.39062 12.4896 4.49479 12.2813 4.70312C12.0729 4.91146 11.9688 5.15885 11.9688 5.44531C11.9688 5.75781 12.0729 6.00521 12.2813 6.1875C12.4896 6.39583 12.737 6.5 13.0234 6.5C13.3099 6.5 13.5573 6.39583 13.7656 6.1875C13.974 5.97917 14.0781 5.73177 14.0781 5.44531C14.0781 5.15885 13.974 4.91146 13.7656 4.70312C13.5573 4.49479 13.3099 4.39062 13.0234 4.39062ZM13.0234 11.5C12.737 11.5 12.4896 11.5911 12.2812 11.7734C12.0729 11.9818 11.9688 12.2292 11.9688 12.5156C11.9688 12.8281 12.0729 13.0755 12.2812 13.2578C12.4896 13.4661 12.737 13.5703 13.0234 13.5703C13.3099 13.5703 13.5573 13.4661 13.7656 13.2578C13.974 13.0495 14.0781 12.8021 14.0781 12.5156C14.0781 12.2292 13.974 11.9818 13.7656 11.7734C13.5573 11.5911 13.3099 11.5 13.0234 11.5ZM16.2656 8.14062C16.0312 8.14062 15.8229 8.21875 15.6406 8.375C15.4583 8.55729 15.3672 8.76562 15.3672 9C15.3672 9.23438 15.4583 9.42969 15.6406 9.58594C15.8229 9.76823 16.0312 9.85938 16.2656 9.85938C16.5 9.85938 16.7083 9.76823 16.8906 9.58594C17.0469 9.42969 17.125 9.23438 17.125 9C17.125 8.76562 17.0469 8.55729 16.8906 8.375C16.7083 8.21875 16.5 8.14062 16.2656 8.14062Z" fill="#D1D5E4"/>
</svg>
