<svg width="18" height="18" viewBox="0 0 18 18" fill="none" xmlns="http://www.w3.org/2000/svg">
<path d="M15.5625 10.5625C16.0052 10.5625 16.3828 10.4193 16.6953 10.1328C17.0078 9.82031 17.1641 9.44271 17.1641 9C17.1641 8.55729 17.0078 8.19271 16.6953 7.90625C16.3828 7.59375 16.0052 7.4375 15.5625 7.4375C15.1458 7.4375 14.7812 7.59375 14.4688 7.90625C14.1562 8.19271 14 8.55729 14 9C14 9.44271 14.1562 9.82031 14.4688 10.1328C14.7812 10.4193 15.1458 10.5625 15.5625 10.5625ZM12.0469 10.4062C12.4375 10.4062 12.763 10.276 13.0234 10.0156C13.3099 9.72917 13.4531 9.39062 13.4531 9C13.4531 8.60938 13.3099 8.28385 13.0234 8.02344C12.763 7.73698 12.4375 7.59375 12.0469 7.59375C11.6562 7.59375 11.3177 7.73698 11.0312 8.02344C10.7708 8.28385 10.6406 8.60938 10.6406 9C10.6406 9.39062 10.7708 9.72917 11.0312 10.0156C11.3177 10.276 11.6562 10.4062 12.0469 10.4062ZM12.0469 6.85156C12.4375 6.85156 12.763 6.72135 13.0234 6.46094C13.3099 6.17448 13.4531 5.83594 13.4531 5.44531C13.4531 5.05469 13.3099 4.72917 13.0234 4.46875C12.763 4.18229 12.4375 4.03906 12.0469 4.03906C11.6562 4.03906 11.3177 4.18229 11.0312 4.46875C10.7708 4.72917 10.6406 5.05469 10.6406 5.44531C10.6406 5.83594 10.7708 6.17448 11.0312 6.46094C11.3177 6.72135 11.6562 6.85156 12.0469 6.85156ZM12.0469 13.9609C12.4375 13.9609 12.763 13.8307 13.0234 13.5703C13.3099 13.2839 13.4531 12.9453 13.4531 12.5547C13.4531 12.1641 13.3099 11.8385 13.0234 11.5781C12.763 11.2917 12.4375 11.1484 12.0469 11.1484C11.6562 11.1484 11.3177 11.2917 11.0312 11.5781C10.7708 11.8385 10.6406 12.1641 10.6406 12.5547C10.6406 12.9193 10.7708 13.2448 11.0312 13.5312C11.3177 13.8177 11.6562 13.9609 12.0469 13.9609ZM8.49219 10.2109C8.83073 10.2109 9.11719 10.0938 9.35156 9.85938C9.61198 9.625 9.74219 9.33854 9.74219 9C9.74219 8.66146 9.61198 8.375 9.35156 8.14062C9.11719 7.90625 8.83073 7.78906 8.49219 7.78906C8.15365 7.78906 7.86719 7.90625 7.63281 8.14062C7.39844 8.375 7.28125 8.66146 7.28125 9C7.28125 9.33854 7.39844 9.625 7.63281 9.85938C7.86719 10.0938 8.15365 10.2109 8.49219 10.2109ZM8.49219 6.65625C8.83073 6.65625 9.11719 6.53906 9.35156 6.30469C9.61198 6.07031 9.74219 5.78385 9.74219 5.44531C9.74219 5.10677 9.61198 4.82031 9.35156 4.58594C9.11719 4.35156 8.83073 4.23438 8.49219 4.23438C8.15365 4.23438 7.86719 4.35156 7.63281 4.58594C7.39844 4.82031 7.28125 5.10677 7.28125 5.44531C7.28125 5.78385 7.39844 6.07031 7.63281 6.30469C7.86719 6.53906 8.15365 6.65625 8.49219 6.65625ZM8.49219 13.7656C8.83073 13.7656 9.11719 13.6484 9.35156 13.4141C9.61198 13.1797 9.74219 12.8932 9.74219 12.5547C9.74219 12.2161 9.61198 11.9297 9.35156 11.6953C9.11719 11.4609 8.83073 11.3438 8.49219 11.3438C8.15365 11.3438 7.86719 11.4609 7.63281 11.6953C7.39844 11.9297 7.28125 12.2161 7.28125 12.5547C7.28125 12.8932 7.39844 13.1797 7.63281 13.4141C7.86719 13.6484 8.15365 13.7656 8.49219 13.7656ZM8.49219 17.3203C8.83073 17.3203 9.11719 17.2031 9.35156 16.9688C9.61198 16.7344 9.74219 16.4479 9.74219 16.1094C9.74219 15.7708 9.61198 15.4844 9.35156 15.25C9.11719 15.0156 8.83073 14.8984 8.49219 14.8984C8.15365 14.8984 7.86719 15.0156 7.63281 15.25C7.39844 15.4844 7.28125 15.7708 7.28125 16.1094C7.28125 16.4479 7.39844 16.7344 7.63281 16.9688C7.86719 17.2031 8.15365 17.3203 8.49219 17.3203ZM8.49219 3.10156C8.83073 3.10156 9.11719 2.98438 9.35156 2.75C9.61198 2.51562 9.74219 2.22917 9.74219 1.89062C9.74219 1.55208 9.61198 1.26562 9.35156 1.03125C9.11719 0.796875 8.83073 0.679688 8.49219 0.679688C8.15365 0.679688 7.86719 0.796875 7.63281 1.03125C7.39844 1.26562 7.28125 1.55208 7.28125 1.89062C7.28125 2.22917 7.39844 2.51562 7.63281 2.75C7.86719 2.98438 8.15365 3.10156 8.49219 3.10156ZM4.97656 10.0547C5.26302 10.0547 5.51042 9.95052 5.71875 9.74219C5.92708 9.53385 6.03125 9.28646 6.03125 9C6.03125 8.71354 5.92708 8.46615 5.71875 8.25781C5.51042 8.04948 5.26302 7.94531 4.97656 7.94531C4.6901 7.94531 4.44271 8.04948 4.23438 8.25781C4.02604 8.46615 3.92188 8.71354 3.92188 9C3.92188 9.28646 4.02604 9.53385 4.23438 9.74219C4.44271 9.95052 4.6901 10.0547 4.97656 10.0547ZM4.97656 13.6094C5.26302 13.6094 5.51042 13.5052 5.71875 13.2969C5.92708 13.0885 6.03125 12.8411 6.03125 12.5547C6.03125 12.2422 5.92708 11.9948 5.71875 11.8125C5.51042 11.6042 5.26302 11.5 4.97656 11.5C4.6901 11.5 4.44271 11.6042 4.23438 11.8125C4.02604 12.0208 3.92188 12.2682 3.92188 12.5547C3.92188 12.8411 4.02604 13.0885 4.23438 13.2969C4.44271 13.5052 4.6901 13.6094 4.97656 13.6094ZM4.97656 6.5C5.26302 6.5 5.51042 6.40885 5.71875 6.22656C5.92708 6.01823 6.03125 5.77083 6.03125 5.48438C6.03125 5.17188 5.92708 4.92448 5.71875 4.74219C5.51042 4.53385 5.26302 4.42969 4.97656 4.42969C4.6901 4.42969 4.44271 4.53385 4.23438 4.74219C4.02604 4.95052 3.92188 5.19792 3.92188 5.48438C3.92188 5.77083 4.02604 6.01823 4.23438 6.22656C4.44271 6.40885 4.6901 6.5 4.97656 6.5ZM1.73438 9.85938C1.96875 9.85938 2.17708 9.78125 2.35938 9.625C2.54167 9.44271 2.63281 9.23438 2.63281 9C2.63281 8.76562 2.54167 8.57031 2.35938 8.41406C2.17708 8.23177 1.96875 8.14062 1.73438 8.14062C1.5 8.14062 1.29167 8.23177 1.10938 8.41406C0.953125 8.57031 0.875 8.76562 0.875 9C0.875 9.23438 0.953125 9.44271 1.10938 9.625C1.29167 9.78125 1.5 9.85938 1.73438 9.85938Z" fill="#D1D5E4"/>
</svg>
