<svg width="16" height="15" viewBox="0 0 16 15" fill="none" xmlns="http://www.w3.org/2000/svg">
<path fill-rule="evenodd" clip-rule="evenodd" d="M14.1869 0.805274C14.4606 1.0607 14.6658 1.32752 14.8026 1.60575C14.9395 1.88398 15.0124 2.16449 15.0216 2.44728C15.0307 2.74832 14.9668 3.0425 14.83 3.32986C14.6932 3.61721 14.4925 3.89772 14.2279 4.17138C14.1002 4.30822 13.5894 4.81906 12.6954 5.70392C11.8014 6.58879 10.8367 7.54433 9.80136 8.57059C8.76598 9.59685 7.81499 10.5387 6.94837 11.3962C6.08176 12.2537 5.6074 12.7235 5.5253 12.8056C5.49794 12.833 5.46829 12.8558 5.43636 12.874C5.40443 12.8923 5.37022 12.9059 5.33374 12.9151C5.20602 12.9516 4.93692 13.0359 4.52642 13.1682C4.11591 13.3005 3.69401 13.435 3.2607 13.5719C2.8274 13.7087 2.43742 13.8341 2.09078 13.9482C1.74413 14.0622 1.56625 14.1192 1.55712 14.1192C1.53888 14.1283 1.51835 14.1352 1.49555 14.1397C1.47274 14.1443 1.44766 14.1466 1.42029 14.1466C1.36556 14.1466 1.31082 14.1352 1.25609 14.1124C1.20136 14.0896 1.15574 14.0553 1.11926 14.0097C1.0554 13.955 1.01435 13.8866 0.996105 13.8045C0.977861 13.7224 0.977861 13.6403 0.996105 13.5582C1.00523 13.5491 1.05996 13.378 1.16031 13.0451C1.26065 12.7121 1.37696 12.3267 1.50923 11.8888C1.64151 11.4509 1.76922 11.0245 1.89237 10.6094C2.01552 10.1943 2.0999 9.8956 2.14551 9.71315C2.16375 9.67666 2.182 9.64246 2.20024 9.61053C2.21849 9.5786 2.24129 9.54895 2.26866 9.52159L6.51051 5.27974C7.57782 4.21243 8.56529 3.22268 9.47296 2.31045C10.3806 1.39822 10.8664 0.914741 10.9302 0.860008C11.0215 0.768785 11.2176 0.62055 11.5186 0.415298C11.8197 0.210046 12.1891 0.107422 12.627 0.107422C12.9098 0.107422 13.1812 0.166716 13.4411 0.285306C13.7011 0.403896 13.9497 0.577217 14.1869 0.805274ZM10.7934 2.25571C10.3647 2.67534 9.81733 3.21811 9.1514 3.88403C8.48547 4.54996 7.79903 5.23868 7.09205 5.95022C6.38507 6.66176 5.70775 7.34136 5.06007 7.98905L3.51385 9.53527C3.69629 9.60825 3.89926 9.71315 4.12276 9.84999C4.34625 9.98682 4.57203 10.1693 4.80008 10.3973C4.98253 10.5889 5.13533 10.7827 5.25848 10.9789C5.38163 11.175 5.47969 11.3552 5.55267 11.5194C5.93581 11.1362 6.44893 10.6277 7.09205 9.99366C7.73517 9.35966 8.40793 8.69374 9.11035 7.99589C9.81277 7.29803 10.4946 6.62071 11.156 5.96391C11.8174 5.3071 12.3624 4.76889 12.7912 4.34927C12.7821 4.27629 12.7296 4.10525 12.6338 3.83614C12.538 3.56703 12.3533 3.29565 12.0796 3.02198C11.806 2.75743 11.5506 2.57043 11.3134 2.46096C11.0762 2.3515 10.9029 2.28308 10.7934 2.25571ZM2.91178 10.2742C2.81143 10.6117 2.67232 11.0587 2.49444 11.6151C2.31655 12.1716 2.16375 12.6551 2.03604 13.0656C2.46479 12.9287 2.96195 12.7645 3.52753 12.573C4.09311 12.3814 4.52641 12.2355 4.82745 12.1351C4.78184 11.9983 4.70886 11.8295 4.60852 11.6288C4.50817 11.4281 4.36222 11.232 4.17065 11.0404C3.91522 10.785 3.67349 10.6003 3.44543 10.4863C3.21737 10.3722 3.03949 10.3015 2.91178 10.2742ZM13.5848 3.54195C13.7673 3.3595 13.9041 3.17706 13.9953 2.99461C14.0865 2.81217 14.1321 2.63885 14.1321 2.47465C14.1321 2.31044 14.0843 2.14168 13.9885 1.96836C13.8927 1.79504 13.7536 1.62172 13.5711 1.44839C13.4252 1.30244 13.2724 1.19297 13.1127 1.11999C12.9531 1.04701 12.7912 1.01052 12.627 1.01052C12.3442 1.01052 12.1002 1.0835 11.8949 1.22946C11.6897 1.37542 11.5779 1.46208 11.5597 1.48944L11.4913 1.55786C11.6646 1.63084 11.8561 1.73346 12.066 1.86574C12.2758 1.99801 12.4901 2.17361 12.7091 2.39255C12.9189 2.60236 13.0876 2.81673 13.2154 3.03566C13.3431 3.2546 13.4389 3.45529 13.5027 3.63773C13.521 3.61949 13.5369 3.60124 13.5506 3.583C13.5643 3.56476 13.5757 3.55107 13.5848 3.54195Z" fill="#80909C"/>
</svg>
