<svg width="140" height="42" viewBox="0 0 140 42" fill="none" xmlns="http://www.w3.org/2000/svg">
<path fill-rule="evenodd" clip-rule="evenodd" d="M26.4026 0.268921L13.2012 13.4704V41.4454L26.4026 28.3308V13.4704V0.268921Z" fill="#03A9F4"/>
<path fill-rule="evenodd" clip-rule="evenodd" d="M13.2015 0.268921L0 13.4704H13.2015V0.268921Z" fill="white"/>
<path fill-rule="evenodd" clip-rule="evenodd" d="M26.4026 0.268921L13.2012 13.4704H22.7615H33.7076L46.909 0.268921H26.4026Z" fill="#03A9F4"/>
<path fill-rule="evenodd" clip-rule="evenodd" d="M26.4031 14.7417L13.2017 27.8566V13.4703H26.4031V14.7417Z" fill="#1976D2"/>
<path fill-rule="evenodd" clip-rule="evenodd" d="M53.8256 14.9901H44.6021V16.9875H47.9287V25.853H50.4674V16.9875H53.8256V14.9901Z" fill="white"/>
<path fill-rule="evenodd" clip-rule="evenodd" d="M63.1852 21.3803V19.4468H57.869V16.9398H63.758V15.006H55.3306V25.853H63.9333V23.9193H57.869V21.3803H63.1852Z" fill="white"/>
<path fill-rule="evenodd" clip-rule="evenodd" d="M65.3271 20.3978C65.3271 23.5804 67.7818 25.9804 71.037 25.9804C72.569 25.9804 74.24 25.2581 75.4319 24.0877L73.9782 22.5504C73.1739 23.3192 72.1146 23.7919 71.1803 23.7919C69.3271 23.7919 67.9295 22.3191 67.9295 20.3659C67.9295 18.4399 69.3271 16.9875 71.1803 16.9875C72.1664 16.9875 73.2249 17.5081 73.9809 18.3558L75.4213 16.6497C74.3213 15.5742 72.6911 14.9106 71.1328 14.9106C67.823 14.9106 65.3271 17.2697 65.3271 20.3978Z" fill="white"/>
<path fill-rule="evenodd" clip-rule="evenodd" d="M87.062 25.8531V15.0061H84.5233V19.5901H79.6131V15.0061H77.0747V25.8531H79.6131V21.5237H84.5233V25.8531H87.062Z" fill="white"/>
<path fill-rule="evenodd" clip-rule="evenodd" d="M96.496 15.9203L95.9637 17.0948C94.9771 16.437 93.8184 16.1709 92.9418 16.1709C91.5323 16.1709 90.6086 16.7032 90.6086 17.6269C90.6086 20.4453 96.7776 18.9737 96.7622 22.9507C96.7622 24.7826 95.1492 25.9569 92.8007 25.9569C91.2038 25.9569 89.6378 25.268 88.6045 24.2815L89.1682 23.1542C90.186 24.1407 91.5796 24.7042 92.8165 24.7042C94.3977 24.7042 95.3843 24.0627 95.3843 23.0132C95.3998 20.1322 89.2307 21.6669 89.2307 17.7366C89.2307 16.0142 90.7497 14.9027 93.0198 14.9027C94.2881 14.9027 95.5879 15.3096 96.496 15.9203Z" fill="white"/>
<path fill-rule="evenodd" clip-rule="evenodd" d="M100.583 21.2439H103.402C105.375 21.2439 106.518 20.3671 106.518 18.6606C106.518 17.0006 105.375 16.1553 103.402 16.1553H100.583V21.2439ZM103.449 14.9496C106.158 14.9496 107.723 16.2962 107.723 18.6291C107.723 21.0559 106.158 22.4495 103.449 22.4495H100.583V25.91H99.3306V14.9496H103.449Z" fill="white"/>
<path fill-rule="evenodd" clip-rule="evenodd" d="M111.059 16.1554V19.7566H116.586V20.9622H111.059V24.7201H117.448V25.9102H109.807V14.9497H117.244V16.1554H111.059Z" fill="white"/>
<path fill-rule="evenodd" clip-rule="evenodd" d="M128.69 16.5154L127.939 17.4705C127.093 16.6093 125.903 16.0926 124.698 16.0926C122.224 16.0926 120.235 18.0028 120.235 20.4142C120.235 22.81 122.224 24.7357 124.698 24.7357C125.903 24.7357 127.078 24.2347 127.939 23.4205L128.706 24.2815C127.626 25.2994 126.154 25.9726 124.635 25.9726C121.472 25.9726 118.967 23.5143 118.967 20.4142C118.967 17.3453 121.503 14.9182 124.682 14.9182C126.185 14.9182 127.641 15.5291 128.69 16.5154Z" fill="white"/>
<mask id="mask0_0_102" style="mask-type:alpha" maskUnits="userSpaceOnUse" x="129" y="14" width="9" height="12">
<path fill-rule="evenodd" clip-rule="evenodd" d="M129.803 14.9027H137.961V25.9569H129.803V14.9027Z" fill="white"/>
</mask>
<g mask="url(#mask0_0_102)">
<path fill-rule="evenodd" clip-rule="evenodd" d="M137.695 15.9203L137.163 17.0948C136.176 16.437 135.017 16.1709 134.141 16.1709C132.731 16.1709 131.807 16.7032 131.807 17.6269C131.807 20.4453 137.976 18.9737 137.961 22.9507C137.961 24.7826 136.348 25.9569 134 25.9569C132.403 25.9569 130.837 25.268 129.803 24.2815L130.367 23.1542C131.385 24.1407 132.778 24.7042 134.015 24.7042C135.596 24.7042 136.583 24.0627 136.583 23.0132C136.599 20.1322 130.43 21.6669 130.43 17.7366C130.43 16.0142 131.948 14.9027 134.219 14.9027C135.487 14.9027 136.787 15.3096 137.695 15.9203Z" fill="white"/>
</g>
</svg>
