<svg width="18" height="19" viewBox="0 0 18 19" fill="none" xmlns="http://www.w3.org/2000/svg">
<path d="M13.5176 1.46289C12.1348 0.654297 10.6289 0.25 9 0.25C7.37109 0.25 5.86523 0.654297 4.48242 1.46289C3.09961 2.25977 2.00391 3.34961 1.19531 4.73242C0.398438 6.11523 0 7.62109 0 9.25C0 10.8789 0.398438 12.3848 1.19531 13.7676C2.00391 15.1504 3.09961 16.2402 4.48242 17.0371C5.86523 17.8457 7.37109 18.25 9 18.25C10.6289 18.25 12.1348 17.8457 13.5176 17.0371C14.9004 16.2402 15.9902 15.1504 16.7871 13.7676C17.5957 12.3848 18 10.8789 18 9.25C18 7.62109 17.5957 6.11523 16.7871 4.73242C15.9902 3.34961 14.9004 2.25977 13.5176 1.46289ZM14.4668 14.7168C13.752 15.4316 12.9316 15.9824 12.0059 16.3691C11.0566 16.7793 10.0547 16.9844 9 16.9844C7.94531 16.9844 6.94336 16.7852 5.99414 16.3867C5.06836 15.9883 4.24805 15.4316 3.5332 14.7168C2.81836 14.002 2.26758 13.1816 1.88086 12.2559C1.4707 11.3066 1.26562 10.3047 1.26562 9.25C1.26562 8.19531 1.46484 7.19336 1.86328 6.24414C2.26172 5.31836 2.81836 4.49805 3.5332 3.7832C4.24805 3.06836 5.06836 2.51758 5.99414 2.13086C6.94336 1.7207 7.94531 1.51562 9 1.51562C10.0547 1.51562 11.0566 1.71484 12.0059 2.11328C12.9316 2.51172 13.752 3.06836 14.4668 3.7832C15.1816 4.49805 15.7324 5.31836 16.1191 6.24414C16.5293 7.19336 16.7344 8.19531 16.7344 9.25C16.7344 10.3047 16.5352 11.3066 16.1367 12.2559C15.7383 13.1816 15.1816 14.002 14.4668 14.7168ZM13.9922 9.88281H4.00781C3.83203 9.88281 3.67969 9.82422 3.55078 9.70703C3.43359 9.57812 3.375 9.42578 3.375 9.25C3.375 9.07422 3.43359 8.92773 3.55078 8.81055C3.67969 8.68164 3.83203 8.61719 4.00781 8.61719H13.9922C14.168 8.61719 14.3145 8.68164 14.4316 8.81055C14.5605 8.92773 14.625 9.07422 14.625 9.25C14.625 9.42578 14.5605 9.57812 14.4316 9.70703C14.3145 9.82422 14.168 9.88281 13.9922 9.88281Z" fill="#D1D5E4"/>
</svg>
