<svg width="20" height="22" viewBox="0 0 20 22" fill="none" xmlns="http://www.w3.org/2000/svg">
<path fill-rule="evenodd" clip-rule="evenodd" d="M19.9729 18.5851C19.9188 18.2628 19.7564 17.9942 19.5129 17.7794L17.9161 15.4965C16.5359 13.536 15.8051 11.2262 15.8051 8.86283V8.7554C15.8051 6.4994 14.452 4.51198 12.5575 3.54513V2.55142C12.5575 1.128 11.3938 0 9.98647 0C8.57916 0 7.41543 1.15485 7.41543 2.55142V3.54513C6.92828 3.78684 6.4682 4.10913 6.06225 4.51198C4.92558 5.58627 4.27605 7.11712 4.27605 8.70168C4.30311 11.2262 3.51827 13.6434 2.00271 15.6845L0.514208 17.7525C0.216509 17.9942 0.0541272 18.2896 0 18.6656V18.7731V18.7999C0 20.0891 1.73207 20.5725 3.43708 20.8679C5.19621 21.1902 7.52368 21.3514 10.0135 21.3514C12.4763 21.3514 14.8309 21.1902 16.59 20.8679C18.2679 20.5456 20 20.0622 20 18.7999V18.7731C20 18.7489 19.9945 18.7248 19.9885 18.6982C19.9811 18.6656 19.9729 18.6294 19.9729 18.5851ZM9.30988 2.55142C9.30988 2.17542 9.60758 1.87999 9.98647 1.87999C10.3654 1.87999 10.6631 2.17542 10.6631 2.55142V2.98113C10.5277 2.95427 10.3924 2.95428 10.2571 2.95428C9.93234 2.92742 9.60758 2.95428 9.28281 3.00799V2.55142H9.30988ZM2.73342 18.7999C4.00541 19.1222 6.4682 19.4714 9.98647 19.4714C13.5047 19.4714 15.9675 19.1222 17.2395 18.7731C15.9675 18.4508 13.5047 18.1016 9.98647 18.1016C6.4682 18.1016 4.00541 18.4508 2.73342 18.7999Z" fill="white"/>
</svg>
