<svg width="18" height="19" viewBox="0 0 18 19" fill="none" xmlns="http://www.w3.org/2000/svg">
<path d="M9 0.125C7.75781 0.125 6.58594 0.359375 5.48438 0.828125C4.39453 1.29687 3.43945 1.94141 2.61914 2.76172C1.81055 3.57031 1.17188 4.52539 0.703125 5.62695C0.234375 6.7168 0 7.88281 0 9.125C0 10.3672 0.234375 11.5391 0.703125 12.6406C1.17188 13.7305 1.81055 14.6855 2.61914 15.5059C3.43945 16.3145 4.39453 16.9531 5.48438 17.4219C6.58594 17.8906 7.75781 18.125 9 18.125C10.2422 18.125 11.4082 17.8906 12.498 17.4219C13.5996 16.9531 14.5547 16.3145 15.3633 15.5059C16.1836 14.6855 16.8281 13.7305 17.2969 12.6406C17.7656 11.5391 18 10.3672 18 9.125C18 7.88281 17.7656 6.7168 17.2969 5.62695C16.8281 4.52539 16.1836 3.57031 15.3633 2.76172C14.5547 1.94141 13.5996 1.29687 12.498 0.828125C11.4082 0.359375 10.2422 0.125 9 0.125ZM9 17.0176C7.91016 17.0176 6.88477 16.8125 5.92383 16.4023C4.97461 15.9805 4.14258 15.4121 3.42773 14.6973C2.72461 13.9824 2.16211 13.1504 1.74023 12.2012C1.33008 11.2402 1.125 10.2148 1.125 9.125C1.125 8.03516 1.33008 7.01562 1.74023 6.06641C2.16211 5.10547 2.72461 4.27344 3.42773 3.57031C4.14258 2.85547 4.97461 2.29297 5.92383 1.88281C6.88477 1.46094 7.91016 1.25 9 1.25C10.0898 1.25 11.1094 1.46094 12.0586 1.88281C13.0195 2.29297 13.8516 2.85547 14.5547 3.57031C15.2695 4.27344 15.832 5.10547 16.2422 6.06641C16.6641 7.01562 16.875 8.03516 16.875 9.125C16.875 10.2148 16.6641 11.2402 16.2422 12.2012C15.832 13.1504 15.2695 13.9824 14.5547 14.6973C13.8516 15.4121 13.0195 15.9805 12.0586 16.4023C11.1094 16.8125 10.0898 17.0176 9 17.0176ZM12.9375 8.5625H9.5625V5.1875C9.5625 5.03516 9.50391 4.90625 9.38672 4.80078C9.28125 4.68359 9.15234 4.625 9 4.625C8.84766 4.625 8.71289 4.68359 8.5957 4.80078C8.49023 4.90625 8.4375 5.03516 8.4375 5.1875V8.5625H5.0625C4.91016 8.5625 4.77539 8.62109 4.6582 8.73828C4.55273 8.84375 4.5 8.97266 4.5 9.125C4.5 9.27734 4.55273 9.41211 4.6582 9.5293C4.77539 9.63477 4.91016 9.6875 5.0625 9.6875H8.4375V13.0625C8.4375 13.2148 8.49023 13.3496 8.5957 13.4668C8.71289 13.5723 8.84766 13.625 9 13.625C9.15234 13.625 9.28125 13.5723 9.38672 13.4668C9.50391 13.3496 9.5625 13.2148 9.5625 13.0625V9.6875H12.9375C13.0898 9.6875 13.2188 9.63477 13.3242 9.5293C13.4414 9.41211 13.5 9.27734 13.5 9.125C13.5 8.97266 13.4414 8.84375 13.3242 8.73828C13.2188 8.62109 13.0898 8.5625 12.9375 8.5625Z" fill="#D1D5E4"/>
</svg>
