<svg width="20" height="20" viewBox="0 0 20 20" fill="none" xmlns="http://www.w3.org/2000/svg">
<path opacity="0.5" fill-rule="evenodd" clip-rule="evenodd" d="M14.8639 13.3878L19.6943 18.2182C20.1019 18.6258 20.1019 19.2867 19.6945 19.6945C19.4905 19.8982 19.2233 20 18.9564 20C18.6891 20 18.4218 19.8982 18.2183 19.6945L13.3885 14.8646C11.9392 15.9924 10.1687 16.606 8.30284 16.606C6.08496 16.606 4.00011 15.7422 2.43175 14.174C0.863592 12.6059 0 10.5207 0 8.30278C0 6.08492 0.863592 3.99988 2.43195 2.43173C3.9999 0.863587 6.08496 0 8.30284 0C10.5205 0 12.6056 0.863587 14.1739 2.43194C17.1612 5.41895 17.3894 10.1333 14.8639 13.3878ZM2.08708 8.30299C2.08708 9.96293 2.73396 11.5238 3.90769 12.6977C5.08183 13.8716 6.64247 14.5183 8.30284 14.5183C9.96279 14.5183 11.524 13.8716 12.698 12.6975C15.1214 10.2741 15.1214 6.33087 12.698 3.90787C11.5238 2.73395 9.96279 2.08748 8.30284 2.08748C6.64247 2.08748 5.08183 2.73395 3.9081 3.90787C2.73396 5.082 2.08708 6.64263 2.08708 8.30299Z" fill="white"/>
</svg>
