<svg width="16" height="19" viewBox="0 0 16 19" fill="none" xmlns="http://www.w3.org/2000/svg">
<path d="M14.7676 2.91992H10.8125V1.39062C10.8125 1.02734 10.6836 0.722656 10.4258 0.476562C10.168 0.230469 9.86328 0.107422 9.51172 0.107422H6.48828C6.13672 0.107422 5.83203 0.230469 5.57422 0.476562C5.31641 0.722656 5.1875 1.02734 5.1875 1.39062V2.91992H1.23242C1.08008 2.91992 0.945312 2.97852 0.828125 3.0957C0.722656 3.20117 0.669922 3.33008 0.669922 3.48242C0.669922 3.63477 0.722656 3.76953 0.828125 3.88672C0.945312 3.99219 1.08008 4.04492 1.23242 4.04492H2.00586L3.30664 17.0527C3.3418 17.3574 3.4707 17.6152 3.69336 17.8262C3.92773 18.0371 4.19727 18.1426 4.50195 18.1426H11.498C11.8027 18.1426 12.0664 18.0371 12.2891 17.8262C12.5234 17.6152 12.6523 17.3574 12.6758 17.0527L13.9941 4.04492H14.7676C14.9199 4.04492 15.0488 3.99219 15.1543 3.88672C15.2715 3.76953 15.3301 3.63477 15.3301 3.48242C15.3301 3.33008 15.2715 3.20117 15.1543 3.0957C15.0488 2.97852 14.9199 2.91992 14.7676 2.91992ZM6.3125 1.39062C6.3125 1.34375 6.33008 1.30273 6.36523 1.26758C6.40039 1.23242 6.44141 1.21484 6.48828 1.21484H9.51172C9.55859 1.21484 9.59961 1.23242 9.63477 1.26758C9.66992 1.30273 9.6875 1.34375 9.6875 1.39062V2.91992H6.3125V1.39062ZM11.5684 16.9473C11.5684 16.9707 11.5566 16.9883 11.5332 17C11.5215 17.0117 11.5098 17.0176 11.498 17.0176H4.50195C4.49023 17.0176 4.47266 17.0117 4.44922 17C4.4375 16.9766 4.43164 16.959 4.43164 16.9473L3.14844 4.04492H12.8516L11.5684 16.9473Z" fill="#D1D5E4"/>
</svg>
