<svg width="12" height="14" viewBox="0 0 12 14" fill="none" xmlns="http://www.w3.org/2000/svg">
<path fill-rule="evenodd" clip-rule="evenodd" d="M10.9209 2.15251C11.0317 2.15251 11.1275 2.19298 11.2085 2.27393C11.2894 2.35488 11.3299 2.45075 11.3299 2.56152C11.3299 2.6723 11.2894 2.76816 11.2085 2.84911C11.1275 2.93006 11.0317 2.97054 10.9209 2.97054H10.3585L9.39987 12.4291C9.38283 12.6506 9.29123 12.8381 9.12507 12.9915C8.9589 13.1448 8.76505 13.2215 8.54349 13.2215H3.45635C3.2348 13.2215 3.04094 13.1448 2.87478 12.9915C2.70861 12.8381 2.61275 12.6506 2.58719 12.4291L1.64134 2.97054H1.07894C0.968163 2.97054 0.8723 2.93006 0.791349 2.84911C0.710397 2.76816 0.669922 2.6723 0.669922 2.56152C0.669922 2.45075 0.710397 2.35488 0.791349 2.27393C0.8723 2.19298 0.968163 2.15251 1.07894 2.15251H3.95484V1.04049C3.95484 0.776333 4.04857 0.554785 4.23604 0.375839C4.4235 0.196893 4.64505 0.107422 4.90069 0.107422H7.09915C7.35479 0.107422 7.57634 0.196893 7.76381 0.375839C7.95127 0.554785 8.04501 0.776333 8.04501 1.04049V2.15251H10.9209ZM4.77287 1.04049V2.15251H7.22697V1.04049C7.22697 1.00641 7.21419 0.976583 7.18863 0.951019C7.16306 0.925455 7.13324 0.912674 7.09915 0.912674H4.90069C4.8666 0.912674 4.83678 0.925455 4.81122 0.951019C4.78565 0.976583 4.77287 1.00641 4.77287 1.04049ZM8.59462 12.3524L9.52769 2.97054H2.47215L3.40522 12.3524C3.40522 12.3609 3.41161 12.3715 3.42439 12.3843C3.43718 12.3971 3.44783 12.4035 3.45635 12.4035H8.5435C8.55202 12.4035 8.56267 12.3992 8.57545 12.3907C8.58823 12.3822 8.59462 12.3694 8.59462 12.3524Z" fill="#FF6A56"/>
</svg>
